/* XPM */
static char *_8b439569e134fe0fe022c7403c06e56gB9UXNknLUTI2lKy[] = {
/* columns rows colors chars-per-pixel */
"128 128 8 1 ",
"  c #D5F26E",
". c #ACE584",
"X c #8EE28E",
"o c #F1F674",
"O c #83C588",
"+ c #80CC90",
"@ c #ABE584",
"# c #81D079",
/* pixels */
"         ..XXoo                                                          ..XXoo                                                 ",
"          .XXo                                                            .XXo                                                  ",
"          .XXX            ........    o                  .    XX          .XXX            ........    o                  .    XX",
"..       .. XX O         ......              X        O.     .....       .. XX O         ......              X        O.     ...",
".....        OXX.X   .........                   XXO OO     .........        OXX.X   .........                   XXO OO     ....",
".....         ............. .....                 XXOO      .  ......         ............. .....                 XXOO      .  .",
" ....    +    ......... XX                         XXXO   +      ....    +    ......... XX                         XXXO   +     ",
"  ....    .    ....X oo                          XXXXXXO          ....    .    ....X oo                          XXXXXXO        ",
"  ....    +    ....X               X        .    XXXXXXO          ....    +    ....X               X        .    XXXXXXO        ",
"                ..X           X    XX X     . OOO...XX.                         ..X           X    XX X     . OOO...XX.         ",
"..              .XX        .      X.X      .O  XXo...X          ..              .XX        .      X.X      .O  XXo...X          ",
"XX             .           .   X.X.    XX  O.  XX.....XX    o   XX             .           .   X.X.    XX  O.  XX.....XX    o   ",
"                                ..      X XX  OX..oo..X.X  oo                                   ..      X XX  OX..oo..X.X  oo   ",
"o                               .       .X  OXXX.......XXoo .O. o                               .       .X  OXXX.......XXoo .O. ",
"o                                       ................XOXOO.  o                                       ................XOXOO.  ",
"                         .             ..................XXX                             .             ..................XXX    ",
" o o                    ..     ...     o ....  .....     XXX  oo o o                    ..     ...     o ....  .....     XXX  oo",
" o oo                   .........   o   ..@       ..       XXoo  o oo                   .........   o   ..@       ..       XXoo ",
" OOOO                  ...........      .         ..          XX OOOO                  ...........      .         ..          XX",
"OO.O                   ............                .          XOOO.O                   ............                .          XO",
"...o                ....XX     O ...                           X...o                ....XX     O ...                           X",
"... OO          .......X                                        ... OO          .......X                                        ",
".......       ........X                                         .......       ........X                                         ",
" .....             ....                                          .....             ....                                         ",
"    .               .....                                    .      .               .....                                    .  ",
"    ...              ...            XXX                     ...     ...              ...            XXX                     ... ",
"   #......    .                    +.X                     .....   #......    .                    +.X                     .....",
". #............               XXX +...X                   .    .. #............               XXX +...X                   .    .",
"..+.............   ..     X    XXXX...XX                        ..+.............   ..     X    XXXX...XX                        ",
".......       .    ..    ..XXX  X.....XXX               o . .. ........       .    ..    ..XXX  X.....XXX               o . .. .",
"      .              XX.............X X  oo                           .              XX.............X X  oo                     ",
"    ...      X        ..............X   ooo                         ...      X        ..............X   ooo                     ",
"      .              XX..............X o   o                          .              XX..............X o   o                    ",
"      .              XX..............XX   oo                          .              XX..............XX   oo                    ",
"    ...      X        ................X  oo                         ...      X        ................X  oo                     ",
"X   .       XX     oX....... .... ......oo +                   XX   .       XX     oX....... .... ......oo +                   X",
"XX           XX    ....     ...  .......XX++  o      O..    X XXXX           XX    ....     ...  .......XX++  o      O..    X XX",
"XX          XXX XXX....   ..        .......X+ oo   o  OOOOX XXXXXX          XXX XXX....   ..        .......X+ oo   o  OOOOX XXXX",
"             XXXXX......          ..........XX  + ooOOXXO.X  XXX             XXXXX......          ..........XX  + ooOOXXO.X  XXX",
"            XX........             .   ........XX+ oOXXXO                   XX........             .   ........XX+ oOXXXO       ",
"      ..XXXXX...........  .         .   .........X+XXXOO o            ..XXXXX...........  .         .   .........X+XXXOO o      ",
"     ......... ........   .                    ...XXXXX              ......... ........   .                    ...XXXXX         ",
"     . ...      ........                .   ..   ...XO   O           . ...      ........                .   ..   ...XO   O      ",
"       .       ... ... .               ...   ... ...X   O. o           .       ... ... .               ...   ... ...X   O. o    ",
"O....                .                ..... ...   ..X  OO.  o  oO....                .                ..... ...   ..X  OO.  o  o",
"...                                  .    ....... ...XOXX  X   O...                                  .    ....... ...XOXX  X   O",
"...              ..                        ....  ......XXXX   OO...              ..                        ....  ......XXXX   OO",
"..        ..      ..               o . .. ...   ...  . ....  OXX..        ..      ..               o . .. ...   ...  . ....  OXX",
".      ........    ..              o....  ...       .  ...  ...X.      ........    ..              o....  ...       .  ...  ...X",
".  ..................              ...           .   . ..   .....  ..................              ...           .   . ..   ....",
"   .     ..... .......            ....         .... .. .           .     ..... .......            ....         .... .. .        ",
"  ..       ...   ....            ...            ......            ..       ...   ....            ...            ......          ",
"  .         ..     .                         ..  ....             .         ..     .                         ..  ....           ",
"              .                o           ..  .......                        .                o           ..  .......          ",
"              o                oo     o     ..........                        o                oo     o     ..........          ",
"             .o o           . .o   oo           ..  .       ++               .o o           . .o   oo           ..  .       ++  ",
"             ...o  o        .... ..o  oo.... .....           ++              ...o  o        .... ..o  oo.... .....           ++ ",
"               .oo.o        .....  ... .  ..   ....           .+               .oo.o        .....  ... .  ..   ....           .+",
"             ... ....       ....    ...        .  .           ..             ... ....       ....    ...        .  .           ..",
"            .....  ...     .....              .    .    .      .            .....  ...     .....              .    .    .      .",
"         ....  ..             ..       .. ..                             ....  ..             ..       .. ..                    ",
"           .. ..             ..         ...        .                       .. ..             ..         ...        .            ",
"          ..  .              .      .                                     ..  .              .      .                           ",
"       O  ..X                                   .    .    . o          O  ..X                                   .    .    . o   ",
"         ..XXoo                                                          ..XXoo                                                 ",
"          .XXo                                                            .XXo                                                  ",
"          .XXX            ........    o                  .    XX          .XXX            ........    o                  .    XX",
"..       .. XX O         ......              X        O.     .....       .. XX O         ......              X        O.     ...",
".....        OXX.X   .........                   XXO OO     .........        OXX.X   .........                   XXO OO     ....",
".....         ............. .....                 XXOO      .  ......         ............. .....                 XXOO      .  .",
" ....    +    ......... XX                         XXXO   +      ....    +    ......... XX                         XXXO   +     ",
"  ....    .    ....X oo                          XXXXXXO          ....    .    ....X oo                          XXXXXXO        ",
"  ....    +    ....X               X        .    XXXXXXO          ....    +    ....X               X        .    XXXXXXO        ",
"                ..X           X    XX X     . OOO...XX.                         ..X           X    XX X     . OOO...XX.         ",
"..              .XX        .      X.X      .O  XXo...X          ..              .XX        .      X.X      .O  XXo...X          ",
"XX             .           .   X.X.    XX  O.  XX.....XX    o   XX             .           .   X.X.    XX  O.  XX.....XX    o   ",
"                                ..      X XX  OX..oo..X.X  oo                                   ..      X XX  OX..oo..X.X  oo   ",
"o                               .       .X  OXXX.......XXoo .O. o                               .       .X  OXXX.......XXoo .O. ",
"o                                       ................XOXOO.  o                                       ................XOXOO.  ",
"                         .             ..................XXX                             .             ..................XXX    ",
" o o                    ..     ...     o ....  .....     XXX  oo o o                    ..     ...     o ....  .....     XXX  oo",
" o oo                   .........   o   ..@       ..       XXoo  o oo                   .........   o   ..@       ..       XXoo ",
" OOOO                  ...........      .         ..          XX OOOO                  ...........      .         ..          XX",
"OO.O                   ............                .          XOOO.O                   ............                .          XO",
"...o                ....XX     O ...                           X...o                ....XX     O ...                           X",
"... OO          .......X                                        ... OO          .......X                                        ",
".......       ........X                                         .......       ........X                                         ",
" .....             ....                                          .....             ....                                         ",
"    .               .....                                    .      .               .....                                    .  ",
"    ...              ...            XXX                     ...     ...              ...            XXX                     ... ",
"   #......    .                    +.X                     .....   #......    .                    +.X                     .....",
". #............               XXX +...X                   .    .. #............               XXX +...X                   .    .",
"..+.............   ..     X    XXXX...XX                        ..+.............   ..     X    XXXX...XX                        ",
".......       .    ..    ..XXX  X.....XXX               o . .. ........       .    ..    ..XXX  X.....XXX               o . .. .",
"      .              XX.............X X  oo                           .              XX.............X X  oo                     ",
"    ...      X        ..............X   ooo                         ...      X        ..............X   ooo                     ",
"      .              XX..............X o   o                          .              XX..............X o   o                    ",
"      .              XX..............XX   oo                          .              XX..............XX   oo                    ",
"    ...      X        ................X  oo                         ...      X        ................X  oo                     ",
"X   .       XX     oX....... .... ......oo +                   XX   .       XX     oX....... .... ......oo +                   X",
"XX           XX    ....     ...  .......XX++  o      O..    X XXXX           XX    ....     ...  .......XX++  o      O..    X XX",
"XX          XXX XXX....   ..        .......X+ oo   o  OOOOX XXXXXX          XXX XXX....   ..        .......X+ oo   o  OOOOX XXXX",
"             XXXXX......          ..........XX  + ooOOXXO.X  XXX             XXXXX......          ..........XX  + ooOOXXO.X  XXX",
"            XX........             .   ........XX+ oOXXXO                   XX........             .   ........XX+ oOXXXO       ",
"      ..XXXXX...........  .         .   .........X+XXXOO o            ..XXXXX...........  .         .   .........X+XXXOO o      ",
"     ......... ........   .                    ...XXXXX              ......... ........   .                    ...XXXXX         ",
"     . ...      ........                .   ..   ...XO   O           . ...      ........                .   ..   ...XO   O      ",
"       .       ... ... .               ...   ... ...X   O. o           .       ... ... .               ...   ... ...X   O. o    ",
"O....                .                ..... ...   ..X  OO.  o  oO....                .                ..... ...   ..X  OO.  o  o",
"...                                  .    ....... ...XOXX  X   O...                                  .    ....... ...XOXX  X   O",
"...              ..                        ....  ......XXXX   OO...              ..                        ....  ......XXXX   OO",
"..        ..      ..               o . .. ...   ...  . ....  OXX..        ..      ..               o . .. ...   ...  . ....  OXX",
".      ........    ..              o....  ...       .  ...  ...X.      ........    ..              o....  ...       .  ...  ...X",
".  ..................              ...           .   . ..   .....  ..................              ...           .   . ..   ....",
"   .     ..... .......            ....         .... .. .           .     ..... .......            ....         .... .. .        ",
"  ..       ...   ....            ...            ......            ..       ...   ....            ...            ......          ",
"  .         ..     .                         ..  ....             .         ..     .                         ..  ....           ",
"              .                o           ..  .......                        .                o           ..  .......          ",
"              o                oo     o     ..........                        o                oo     o     ..........          ",
"             .o o           . .o   oo           ..  .       ++               .o o           . .o   oo           ..  .       ++  ",
"             ...o  o        .... ..o  oo.... .....           ++              ...o  o        .... ..o  oo.... .....           ++ ",
"               .oo.o        .....  ... .  ..   ....           .+               .oo.o        .....  ... .  ..   ....           .+",
"             ... ....       ....    ...        .  .           ..             ... ....       ....    ...        .  .           ..",
"            .....  ...     .....              .    .    .      .            .....  ...     .....              .    .    .      .",
"         ....  ..             ..       .. ..                             ....  ..             ..       .. ..                    ",
"           .. ..             ..         ...        .                       .. ..             ..         ...        .            ",
"          ..  .              .      .                                     ..  .              .      .                           ",
"       O  ..X                                   .    .    . o          O  ..X                                   .    .    . o   "
};
