/* XPM */
static char *fa43074b330a4936c8eb3ab2d49fbef26OHkqJF9Ab1XUeuH[] = {
/* columns rows colors chars-per-pixel */
"128 128 35 1 ",
"  c #72751B",
". c #807F72",
"X c #7C7B6E",
"o c #878679",
"O c #88867D",
"+ c #848279",
"@ c #818074",
"# c #8E8C84",
"$ c #87857C",
"% c #87867D",
"& c #64604B",
"* c #8E8D84",
"= c #676455",
"- c #8E8C83",
"; c #787B21",
": c #7F8226",
"> c #8D8C83",
", c #86847B",
"< c #838178",
"1 c #7F8124",
"2 c #8D8B82",
"3 c #8D8B83",
"4 c #605C48",
"5 c #89877F",
"6 c #656C17",
"7 c #939189",
"8 c #686F16",
"9 c #6C6852",
"0 c #66624D",
"q c #8C8A80",
"w c #8A8A7D",
"e c #88867E",
"r c #838279",
"t c #8C8A81",
"y c #8D8C82",
/* pixels */
"                                                                                                                                ",
"  ............    XXXXXXXXXXXX    ............    XXXXXXXXXXXX    ............    oooooooooooo    ............    ............  ",
" O............O  +XXXXXXXXXXXX+  O............O  +XXXXXXXXXXXX+  @............O  #oooooooooooo#  O............O  O............O ",
" O............O  +XXXXXXXXXXXX+  O............O  +XXXXXXXXXXXX+  $............O  #oooooooooooo#  O............O  O............O ",
" O............O  +XXXXXXXXXXXX+  O............O  +XXXXXXXXXXXX+  %............O  #oooooooooooo#  O............O  O............O ",
" O............O  +XXXXXXXXXXXX+  &&%..........O  +XXXXXXXXXXXX+  %............O  *oooooooooooo#  O............O  O..........O== ",
" O............O  +XXXXXXXXXXXX+   %...........O  +XXXXXXXXXXXX+  %............O  *oooooooooooo#  O............O  O...........O  ",
" O............O  +XXXXXXXXXXXX+   %...........O  +XXXXXXXXXXXX+  %............O  *oooooooooooo-  O............O  O...........O  ",
" O............O  +XXXXXXXXXXXX+  %............O  +XXXXXXXXXXXX+  %............O  *oooooooooooo-  O............O  O............O ",
" O............O  +XXXXXXXXXXXX+  %............O  +XXXXXXXXXXXX+  %............O  *oooooooooooo-  O............O  O............O ",
" O............O  +XXXXXXXXXXXX+  $............O  +XXXXXXXXXXXX+  %............O  *oooooooooooo-  O............O  O............O ",
" O............O  +XXXXXXXXXXXX+  $............O  +XXXXXXXXXXXX+  %............O  *oooooooooooo-  O............O  O............O ",
" O............O  +XXXXXXXXXXXX+  $...........;:  +X;;XXXXXXXXX+  %............O  *oooo;ooooooo>  O............O  O............O ",
" O............O  +XXXXXXXXXXXX+  ,............:: <;;XXXXXXXXXXO  %............$  *ooo11ooooooo2  O..........:;&  O............O ",
" &333333333333&  4555555555555&  &3333333333336;;&;;5555555553   &333333333333&  &77;1877777779  &33333:;33;:6   &3333333333333 ",
"  &0000000000&    444444&&444&    &&&&&&&&&&&&6;; 66&&&44444&&    &&&&&&&&&&&&    &9;;99999999    &&&&&6;;&;;     &&&&&&&&&&&&& ",
"                                               66                                   88                  6;;;6                   ",
"  ............    XXXXXXXXXXXX    ............    XXXXXXXXXXXX    oooooooooooo    ............    ......6;;6         XXXXXXXXX  ",
" O............O  +XXXXXXXXXXXX+  O............O  +XXXXXXXXXXXX+  qoooooooooooow  %............O  e.......6;         XXXXXXXXXXr ",
" O............O  +XXXXXXXXXXXX+  O............O  +XXXXXXXXXXXX+  2oooooooooooot  O............O  e...........      XXXXXXXXXXXr ",
" O............O  +XXXXXXXXXXXX+  O............O  +XXXXXXXXXXXX+  >oooooooooooo2  O............O  e............O  +XXXXXXXXXXXXr ",
" O............O  +XXXXXXXXXXXX+  O............O  +XXXXXXXXXXXX+  >ooooooooooooy  O............O  e............O  +XXXXXXXXXXXXr ",
" O............O  +XXXXXXXXXXXX+  O............O  +XXXXXXXXXXXX+  >oooooooooooo>  O............O  e............+  ;XXXXXXXXXXXXr ",
" O............O  +XXXXXXXXXXXX+  O............O  +XXXXXXXXXXXX+  >oooooooooooo-  O............O  O............+ 11XXXXXXXXXXXXr ",
" O............O  +XXXXXXXXXXXX+  O............O  +XXXXXXXXXXXX+  >oooooooooooo-  O............O  O............+;18XXXXXXXXXXXXr ",
" O............O  +XXXXXXXXXXXX+  O............O  +XXXXXXXXXXXX+  >oooooooooooo-  O............O  O............+;;+XXXXXXXXXXXXr ",
" O............O  +XXXXXXXXXXXX+  O............O  +XXXXXXXXXXXX+  9>ooooooooooo-  O............3  O............O88+XXXXXXXXXXXXr ",
" O............O  +XXXXXXXXXXXX+  O............O  +XXXXXXXXXXXX+   9>oooooooooo-  O...........3&  O............O  +XXXXXXXXXXXXr ",
" O............O  +XXXXXXXXXXXX+  O............O  +XXXXXXXXXXXX+    >oooooooooo-  %..........3&   %............O  +XXXXXXXXXXX53 ",
" O............O  +XXXXXXXXXXXX+  O............O  +XXXXXXXXXXXX+ 11 >oooooooooo-  $.........3&    $............O  OXXXXXXXXXX5&& ",
" &333333333333&  4555555555555&  &333333333333&  4555555555555&  1;;7777777777&  &333333333&     &333333333333&  &3555555555&   ",
"  &0000000000&    444444&&444&    &0000000000&    444444&&444&   8;89999999999    &&&&&&&&&       &&&&&&&&&&&&    &&4444444&    ",
"                                                                                                                                ",
"  ............    XXXXXXXXXXXX    ............    XXXXXXXXXXXX   ............    XXXXXXXXXXXX     ............    XXXXXXXXXXXX  ",
" O............O  +XXXXXXXXXXXX+  O............O  +XXXXXXXXXXXX+ O............O  +XXXXXXXXXXXX+   O............O  +XXXXXXXXXXXX+ ",
" O............O  +XXXXXXXXXXXX+  O............O  +XXXXXXXXXXXX+ O............O  +XXXXXXXXXXXX+   O............O  +XXXXXXXXXXXX+ ",
" O............O  +XXXXXXXXXXXX+  O............O  +XXXXXXXXXXXX+ O............O  +XXXXXXXXXXXX+   O............O  +XXXXXXXXXXXX+ ",
" &&%..........O  +XXXXXXXXXXXX+  O............O  +XXXXXXXXXXXX+ O............O  +XXXXXXXXXXXX+   O............O  +XXXXXXXXXXXX+ ",
"  %...........O  +XXXXXXXXXXXX+  O............O  +XXXXXXXXXXXX+ O............O  +XXXXXXXXXXXX+   O............O  +XXXXXXXXXXXX+ ",
"  %...........O  +XXXXXXXXXXXX+  O............O  +XXXXXXXXXXXX+ O............O  +XXXXXXXXXXXX+   O............O  +XXXXXXXXXXXX+ ",
" %............O  +XXXXXXXXXXXX+  O............O  +XXXXXXXXXXXX+ O............O  +XXXXXXXXXXXX+   O............O  +XXXXXXXXXXXX+ ",
" %............O  +XXXXXXXXXXXX+  O............O  +XXXXXXXXXXXX+ O............O  +XXXXXXXXXXXX+   O............O  +XXXXXXXXXXXX+ ",
" $............O  +XXXXXXXXXXXX+  O............O  +XXXXXXXXXXXX+ O............O  +XXXXXXXXXXXX+   O............O  +XXXXXXXXXXXX+ ",
" $............O  +XXXXXXXXXXXX+  O............O  +XXXXXXXXXXXX+ O............O  +XXXXXXXXXXXX+   O............O  +XXXXXXXXXXXX+ ",
" $...........;:  +X;;XXXXXXXXX+  O............O  +XXXXXXXXXXXX+ O............O  +XXXXXXXXXXXX+   O............O  +XXXXXXXXXXXX+ ",
" ,............:: <;;XXXXXXXXXXO  O............O  +XXXXXXXXXXXX+ O............O  +XXXXXXXXXXXX+   O............O  +XXXXXXXXXXXX+ ",
" &3333333333336;;&;;5555555553   &333333333333&  4555555555555& &333333333333&  4555555555555&   &333333333333&  4555555555555& ",
"  &&&&&&&&&&&&6;; 66&&&44444&&    &0000000000&    444444&&444&   &0000000000&    444444&&444&     &0000000000&    444444&&444&  ",
"               66                                                                                                               ",
"  ............    ............    ............    XXXXXXXXXXXX   ............    XXXXXXXXXXXX     ............    XXXXXXXXXXXX  ",
" O............O  O............O  O............O  +XXXXXXXXXXXX+ O............O  +XXXXXXXXXXXX+   O............O  +XXXXXXXXXXXX+ ",
" O............O  O............O  O............O  +XXXXXXXXXXXX+ O............O  +XXXXXXXXXXXX+   O............O  +XXXXXXXXXXXX+ ",
" O............O  O............O  O............O  +XXXXXXXXXXXX+ O............O  +XXXXXXXXXXXX+   O............O  +XXXXXXXXXXXX+ ",
" O............O  O..........O==  O............O  +XXXXXXXXXXXX+ O............O  +XXXXXXXXXXXX+   O............O  +XXXXXXXXXXXX+ ",
" O............O  O...........O   O............O  +XXXXXXXXXXXX+ O............O  +XXXXXXXXXXXX+   O............O  +XXXXXXXXXXXX+ ",
" O............O  O...........O   O............O  +XXXXXXXXXXXX+ O............O  +XXXXXXXXXXXX+   O............O  +XXXXXXXXXXXX+ ",
" O............O  O............O  O............O  +XXXXXXXXXXXX+ O............O  +XXXXXXXXXXXX+   O............O  +XXXXXXXXXXXX+ ",
" O............O  O............O  O............O  +XXXXXXXXXXXX+ O............O  +XXXXXXXXXXXX+   O............O  +XXXXXXXXXXXX+ ",
" O............O  O............O  O............O  +XXXXXXXXXXXX+ O............O  +XXXXXXXXXXXX+   O............O  +XXXXXXXXXXXX+ ",
" O............O  O............O  O............O  +XXXXXXXXXXXX+ O............O  +XXXXXXXXXXXX+   O............O  +XXXXXXXXXXXX+ ",
" O............O  O............O  O............O  +XXXXXXXXXXXX+ O............O  +XXXXXXXXXXXX+   O............O  +XXXXXXXXXXXX+ ",
" O..........:;&  O............O  O............O  +XXXXXXXXXXXX+ O............O  +XXXXXXXXXXXX+   O............O  +XXXXXXXXXXXX+ ",
" &33333:;33;:6   &3333333333333  &333333333333&  4555555555555& &333333333333&  4555555555555&   &333333333333&  4555555555555& ",
"  &&&&&6;;&;;     &&&&&&&&&&&&&   &0000000000&    444444&&444&   &0000000000&    444444&&444&     &0000000000&    444444&&444&  ",
"        6;;;6                                                                                                                   ",
"  ......6;;6         XXXXXXXXX    ............    XXXXXXXXXXXX    ............    XXXXXXXXXXXX    ............    XXXXXXXXXXXX  ",
" e.......6;         XXXXXXXXXXr  O............O  +XXXXXXXXXXXX+  O............O  +XXXXXXXXXXXX+  O............O  +XXXXXXXXXXXX+ ",
" e...........      XXXXXXXXXXXr  O............O  +XXXXXXXXXXXX+  O............O  +XXXXXXXXXXXX+  O............O  +XXXXXXXXXXXX+ ",
" e............O  +XXXXXXXXXXXXr  O............O  +XXXXXXXXXXXX+  O............O  +XXXXXXXXXXXX+  O............O  +XXXXXXXXXXXX+ ",
" e............O  +XXXXXXXXXXXXr  O............O  +XXXXXXXXXXXX+  O............O  +XXXXXXXXXXXX+  &&%..........O  +XXXXXXXXXXXX+ ",
" e............+  ;XXXXXXXXXXXXr  O............O  +XXXXXXXXXXXX+  O............O  +XXXXXXXXXXXX+   %...........O  +XXXXXXXXXXXX+ ",
" O............+ 11XXXXXXXXXXXXr  O............O  +XXXXXXXXXXXX+  O............O  +XXXXXXXXXXXX+   %...........O  +XXXXXXXXXXXX+ ",
" O............+;18XXXXXXXXXXXXr  O............O  +XXXXXXXXXXXX+  O............O  +XXXXXXXXXXXX+  %............O  +XXXXXXXXXXXX+ ",
" O............+;;+XXXXXXXXXXXXr  O............O  +XXXXXXXXXXXX+  O............O  +XXXXXXXXXXXX+  %............O  +XXXXXXXXXXXX+ ",
" O............O88+XXXXXXXXXXXXr  O............O  +XXXXXXXXXXXX+  O............O  +XXXXXXXXXXXX+  $............O  +XXXXXXXXXXXX+ ",
" O............O  +XXXXXXXXXXXXr  O............O  +XXXXXXXXXXXX+  O............O  +XXXXXXXXXXXX+  $............O  +XXXXXXXXXXXX+ ",
" %............O  +XXXXXXXXXXX53  O............O  +XXXXXXXXXXXX+  O............O  +XXXXXXXXXXXX+  $...........;:  +X;;XXXXXXXXX+ ",
" $............O  OXXXXXXXXXX5&&  O............O  +XXXXXXXXXXXX+  O............O  +XXXXXXXXXXXX+  ,............:: <;;XXXXXXXXXXO ",
" &333333333333&  &3555555555&    &333333333333&  4555555555555&  &333333333333&  4555555555555&  &3333333333336;;&;;5555555553  ",
"  &&&&&&&&&&&&    &&4444444&      &0000000000&    444444&&444&    &0000000000&    444444&&444&    &&&&&&&&&&&&6;; 66&&&44444&&  ",
"                                                                                                               66               ",
"  ............    XXXXXXXXXXXX    ............    XXXXXXXXXXXX    ............    XXXXXXXXXXXX    ............    XXXXXXXXXXXX  ",
" O............O  +XXXXXXXXXXXX+  O............O  +XXXXXXXXXXXX+  O............O  +XXXXXXXXXXXX+  O............O  +XXXXXXXXXXXX+ ",
" O............O  +XXXXXXXXXXXX+  O............O  +XXXXXXXXXXXX+  O............O  +XXXXXXXXXXXX+  O............O  +XXXXXXXXXXXX+ ",
" O............O  +XXXXXXXXXXXX+  O............O  +XXXXXXXXXXXX+  O............O  +XXXXXXXXXXXX+  O............O  +XXXXXXXXXXXX+ ",
" O............O  +XXXXXXXXXXXX+  O............O  +XXXXXXXXXXXX+  &&%..........O  +XXXXXXXXXXXX+  O............O  +XXXXXXXXXXXX+ ",
" O............O  +XXXXXXXXXXXX+  O............O  +XXXXXXXXXXXX+   %...........O  +XXXXXXXXXXXX+  O............O  +XXXXXXXXXXXX+ ",
" O............O  +XXXXXXXXXXXX+  O............O  +XXXXXXXXXXXX+   %...........O  +XXXXXXXXXXXX+  O............O  +XXXXXXXXXXXX+ ",
" O............O  +XXXXXXXXXXXX+  O............O  +XXXXXXXXXXXX+  %............O  +XXXXXXXXXXXX+  O............O  +XXXXXXXXXXXX+ ",
" O............O  +XXXXXXXXXXXX+  O............O  +XXXXXXXXXXXX+  %............O  +XXXXXXXXXXXX+  O............O  +XXXXXXXXXXXX+ ",
" O............O  +XXXXXXXXXXXX+  O............O  +XXXXXXXXXXXX+  $............O  +XXXXXXXXXXXX+  O............O  +XXXXXXXXXXXX+ ",
" O............O  +XXXXXXXXXXXX+  O............O  +XXXXXXXXXXXX+  $............O  +XXXXXXXXXXXX+  O............O  +XXXXXXXXXXXX+ ",
" O............O  +XXXXXXXXXXXX+  O............O  +XXXXXXXXXXXX+  $...........;:  +X;;XXXXXXXXX+  O............O  +XXXXXXXXXXXX+ ",
" O............O  +XXXXXXXXXXXX+  O............O  +XXXXXXXXXXXX+  ,............:: <;;XXXXXXXXXXO  O............O  +XXXXXXXXXXXX+ ",
" &333333333333&  4555555555555&  &333333333333&  4555555555555&  &3333333333336;;&;;5555555553   &333333333333&  4555555555555& ",
"  &0000000000&    444444&&444&    &0000000000&    444444&&444&    &&&&&&&&&&&&6;; 66&&&44444&&    &0000000000&    444444&&444&  ",
"                                                                               66                                               ",
"  ............    XXXXXXXXXXXX    ............    XXXXXXXXXXXX    ............    ............    ............    XXXXXXXXXXXX  ",
" O............O  +XXXXXXXXXXXX+  O............O  +XXXXXXXXXXXX+  O............O  O............O  O............O  +XXXXXXXXXXXX+ ",
" O............O  +XXXXXXXXXXXX+  O............O  +XXXXXXXXXXXX+  O............O  O............O  O............O  +XXXXXXXXXXXX+ ",
" O............O  +XXXXXXXXXXXX+  O............O  +XXXXXXXXXXXX+  O............O  O............O  O............O  +XXXXXXXXXXXX+ ",
" O............O  +XXXXXXXXXXXX+  O............O  +XXXXXXXXXXXX+  O............O  O..........O==  O............O  +XXXXXXXXXXXX+ ",
" O............O  +XXXXXXXXXXXX+  O............O  +XXXXXXXXXXXX+  O............O  O...........O   O............O  +XXXXXXXXXXXX+ ",
" O............O  +XXXXXXXXXXXX+  O............O  +XXXXXXXXXXXX+  O............O  O...........O   O............O  +XXXXXXXXXXXX+ ",
" O............O  +XXXXXXXXXXXX+  O............O  +XXXXXXXXXXXX+  O............O  O............O  O............O  +XXXXXXXXXXXX+ ",
" O............O  +XXXXXXXXXXXX+  O............O  +XXXXXXXXXXXX+  O............O  O............O  O............O  +XXXXXXXXXXXX+ ",
" O............O  +XXXXXXXXXXXX+  O............O  +XXXXXXXXXXXX+  O............O  O............O  O............O  +XXXXXXXXXXXX+ ",
" O............O  +XXXXXXXXXXXX+  O............O  +XXXXXXXXXXXX+  O............O  O............O  O............O  +XXXXXXXXXXXX+ ",
" O............O  +XXXXXXXXXXXX+  O............O  +XXXXXXXXXXXX+  O............O  O............O  O............O  +XXXXXXXXXXXX+ ",
" O............O  +XXXXXXXXXXXX+  O............O  +XXXXXXXXXXXX+  O..........:;&  O............O  O............O  +XXXXXXXXXXXX+ ",
" &333333333333&  4555555555555&  &333333333333&  4555555555555&  &33333:;33;:6   &3333333333333  &333333333333&  4555555555555& ",
"  &0000000000&    444444&&444&    &0000000000&    444444&&444&    &&&&&6;;&;;     &&&&&&&&&&&&&   &0000000000&    444444&&444&  ",
"                                                                        6;;;6                                                   ",
"  ............    XXXXXXXXXXXX    ............    XXXXXXXXXXXX    ......6;;6         XXXXXXXXX    ............    XXXXXXXXXXXX  ",
" O............O  +XXXXXXXXXXXX+  O............O  +XXXXXXXXXXXX+  e.......6;         XXXXXXXXXXr  O............O  +XXXXXXXXXXXX+ ",
" O............O  +XXXXXXXXXXXX+  O............O  +XXXXXXXXXXXX+  e...........      XXXXXXXXXXXr  O............O  +XXXXXXXXXXXX+ ",
" O............O  +XXXXXXXXXXXX+  O............O  +XXXXXXXXXXXX+  e............O  +XXXXXXXXXXXXr  O............O  +XXXXXXXXXXXX+ ",
" O............O  +XXXXXXXXXXXX+  O............O  +XXXXXXXXXXXX+  e............O  +XXXXXXXXXXXXr  O............O  +XXXXXXXXXXXX+ ",
" O............O  +XXXXXXXXXXXX+  O............O  +XXXXXXXXXXXX+  e............+  ;XXXXXXXXXXXXr  O............O  +XXXXXXXXXXXX+ ",
" O............O  +XXXXXXXXXXXX+  O............O  +XXXXXXXXXXXX+  O............+ 11XXXXXXXXXXXXr  O............O  +XXXXXXXXXXXX+ ",
" O............O  +XXXXXXXXXXXX+  O............O  +XXXXXXXXXXXX+  O............+;18XXXXXXXXXXXXr  O............O  +XXXXXXXXXXXX+ ",
" O............O  +XXXXXXXXXXXX+  O............O  +XXXXXXXXXXXX+  O............+;;+XXXXXXXXXXXXr  O............O  +XXXXXXXXXXXX+ ",
" O............O  +XXXXXXXXXXXX+  O............O  +XXXXXXXXXXXX+  O............O88+XXXXXXXXXXXXr  O............O  +XXXXXXXXXXXX+ ",
" O............O  +XXXXXXXXXXXX+  O............O  +XXXXXXXXXXXX+  O............O  +XXXXXXXXXXXXr  O............O  +XXXXXXXXXXXX+ ",
" O............O  +XXXXXXXXXXXX+  O............O  +XXXXXXXXXXXX+  %............O  +XXXXXXXXXXX53  O............O  +XXXXXXXXXXXX+ ",
" O............O  +XXXXXXXXXXXX+  O............O  +XXXXXXXXXXXX+  $............O  OXXXXXXXXXX5&&  O............O  +XXXXXXXXXXXX+ ",
" &333333333333&  4555555555555&  &333333333333&  4555555555555&  &333333333333&  &3555555555&    &333333333333&  4555555555555& ",
"  &0000000000&    444444&&444&    &0000000000&    444444&&444&    &&&&&&&&&&&&    &&4444444&      &0000000000&    444444&&444&  "
};
