/* XPM */
static char *result[] = {
/* columns rows colors chars-per-pixel */
"32 32 167 2 ",
"   c #0F060B",
".  c #0C090C",
"X  c #180708",
"o  c #161114",
"O  c #270C0D",
"+  c #271314",
"@  c #24171B",
"#  c #231D1D",
"$  c #391011",
"%  c #332316",
"&  c #3A2717",
"*  c #3D2A18",
"=  c #192635",
"-  c #1F2933",
";  c #1C2B3C",
":  c #292325",
">  c #232529",
",  c #2D292A",
"<  c #342B25",
"1  c #372529",
"2  c #362E29",
"3  c #35302A",
"4  c #212A35",
"5  c #2F2F32",
"6  c #3E2C30",
"7  c #2C333C",
"8  c #393632",
"9  c #3A3734",
"0  c #32363B",
"q  c #36393E",
"w  c #3C3C3D",
"e  c #510809",
"r  c #5A090A",
"t  c #401B1C",
"y  c #6C1113",
"u  c #432E1B",
"i  c #46311C",
"p  c #4B331E",
"a  c #4A1F20",
"s  c #4A2022",
"d  c #442B2D",
"f  c #5C2224",
"g  c #4C3623",
"h  c #4B3826",
"j  c #42352B",
"k  c #483529",
"l  c #4C3C2E",
"z  c #503720",
"x  c #543A23",
"c  c #593E25",
"v  c #543D29",
"b  c #453634",
"n  c #483733",
"m  c #443B34",
"M  c #463F39",
"N  c #4A3E38",
"B  c #513538",
"V  c #543F3E",
"C  c #5C3A39",
"Z  c #5D4026",
"A  c #5B422C",
"S  c #4D4137",
"D  c #45403C",
"F  c #4C433C",
"G  c #544334",
"H  c #5A4534",
"J  c #54443B",
"K  c #59453C",
"L  c #5A4B3B",
"P  c #614327",
"I  c #664629",
"U  c #724E2E",
"Y  c #634932",
"T  c #6B4C30",
"R  c #644F3F",
"E  c #714F30",
"W  c #6E5137",
"Q  c #6E533C",
"!  c #735131",
"~  c #7E5733",
"^  c #7F5833",
"/  c #152C45",
"(  c #192D45",
")  c #1E3747",
"_  c #16304D",
"`  c #1C394E",
"'  c #052D57",
"]  c #002D5B",
"[  c #06305B",
"{  c #163353",
"}  c #16375B",
"|  c #183758",
" . c #17385C",
".. c #183A5F",
"X. c #2A3744",
"o. c #2E3B46",
"O. c #25364A",
"+. c #29374B",
"@. c #26384E",
"#. c #313844",
"$. c #3A3E45",
"%. c #343F4D",
"&. c #223750",
"*. c #223B57",
"=. c #2D3D50",
"-. c #223E5C",
";. c #413F40",
":. c #1F4259",
">. c #3C4046",
",. c #3D444B",
"<. c #3E484D",
"1. c #23455C",
"2. c #28495F",
"3. c #354150",
"4. c #394656",
"5. c #214761",
"6. c #2B4564",
"7. c #224964",
"8. c #2F4E64",
"9. c #324661",
"0. c #464546",
"q. c #4A4142",
"w. c #42454C",
"e. c #41494B",
"r. c #524242",
"t. c #5F4A44",
"y. c #514C49",
"u. c #5B5045",
"i. c #5C524D",
"p. c #464E54",
"a. c #424759",
"s. c #4D5253",
"d. c #55535A",
"f. c #605245",
"g. c #675C4F",
"h. c #6B5B48",
"j. c #755C44",
"k. c #775E4A",
"l. c #665C50",
"z. c #6B5D57",
"x. c #7D674D",
"c. c #676257",
"v. c #6D6152",
"b. c #7B6957",
"n. c #495E75",
"m. c #65616A",
"M. c #68626F",
"N. c #825934",
"B. c #91663B",
"V. c #91693E",
"C. c #9A6A3F",
"Z. c #836440",
"A. c #81674D",
"S. c #886A4C",
"D. c #966D46",
"F. c #9C7249",
"G. c #856F58",
"H. c #A3724A",
"J. c #886C6C",
"K. c #877A7F",
"L. c #9C7473",
"P. c #967678",
"I. c #907D7A",
"U. c #A07B65",
"Y. c #988167",
"T. c #B69974",
"R. c #B09190",
/* pixels */
"] ] ] ] ] ........] ] ....] ..] ............] ] ] ........] ] ] ",
"] ] ] ] ] ] ] ......] ] ..] ' [ ] ............] ] ] ........] ] ",
"..] ] ] ] ] ] ..........] ] ,.s.] ] ] ] ........] ] ....] ] ] ] ",
"[ ] ..] ] ] ] ] ] ..] ......w H ' ] ] ] ........] ] ] ] ] ] ] ] ",
"] ....] ] ] ] ] ] ] ] ] [ [ D G ' ] ] ..........] ] ] ] ] ] ] ] ",
"..........] ] ] ] ] ] ] ] p.v.g.| ] ] [ ] ] ] ] ] ] ] ] ] ] ....",
"..........7.7.7.......[ ..b.G.u.| ......] ] ] ..............7...",
"....7.7.7.7.7...........m.U.T.l...............................7.",
"......................6.P.I.h.r.......7.7.7.........7.7.7.7.7.7.",
"......................M.R.n.8 v ......7.......7.7.7.............",
"....................6.P.K.+.N l 7.7.7...........7.7.7.7.7.7.7...",
"7.7.................9.L.d.@ K l 5.......................7.7.....",
"7.7.7.7.7...........9.J.2 . n J 5.7.7.7.............7.7.7.....7.",
"........6.s.F @.......d.6 2 v.c.-.....7.7.7.7.........7.........",
".... .3.k.D.T h m 2...a.B # i.y.-.......7.7.7.7.........7.7.7...",
"..4.S.F.C.U g k #.....8.;.  C q.| ....7.7.7.7.7.7.7.7...........",
"h.Y.H.D.B.N.! M | ....} O.o z.y.{ | 2.7.7..................... .",
"x.Y.j.Z.V.! I ! @..._ ) / u.T.S > > - { ..| ( ( | ............1.",
"w A.f.<.e.H i ! <.( : < 2 Q Y.c.L h x l D m j < 4 | ....&.$.%...",
"%.,.| ....=.A W F l c c p g c.Y.L p g p c p x Z c ;.-.X.T U E q.",
"..........*.v Y x x P c u i h A p p i i ^ x i I x x l v Z g z H ",
"7.7.......| j v v ! N.Z % i i z * i * i ^ i * ^ ~ E p Z 9 9 c q ",
"7...........5 g V K R c + p i p i p i p ^ u & Q t.t.H h ` { ) :.",
"............_ 5 f r , D % p p l F F S g ~ p j ;.$ y b ; 5.7.7...",
"..............{ 1 t X d N z D w.7 - 3.y.T A q.O + s X.1.........",
"................( 0.a r V A F = 7 q ; 0 H K f e q.o.1.7.........",
"..................( : @ b x M 4 >.s.; q l l 1 # 7 | ............",
"..................} _ / 4 , 2 0 7 7 0 3 < , ; _ | ..............",
"........................} :.` ) / _ / / { } ....................",
"................................................................",
"................................................................",
"................................................................"
};