/* XPM */
static char *result[] = {
/* columns rows colors chars-per-pixel */
"32 32 67 1 ",
"  c #222324",
". c #2D2A27",
"X c #342B23",
"o c #3A2D24",
"O c #342E29",
"+ c #3F3126",
"@ c #3D332A",
"# c #3F3E37",
"$ c #443227",
"% c #44362A",
"& c #483629",
"* c #47382C",
"= c #4C3B2E",
"- c #553D2E",
"; c #513F30",
": c #4E4538",
"> c #4D483D",
", c #534132",
"< c #5A4332",
"1 c #5D4835",
"2 c #52493D",
"3 c #5B4F3F",
"4 c #614633",
"5 c #644936",
"6 c #694B36",
"7 c #644D39",
"8 c #6B4E39",
"9 c #704F3A",
"0 c #6C523B",
"q c #72553D",
"w c #76593E",
"e c #795A3F",
"r c #08255D",
"t c #0D295E",
"y c #1D3561",
"u c #3C4642",
"i c #1E4765",
"p c #444A42",
"a c #484941",
"s c #4C534B",
"d c #555146",
"f c #5D5B4D",
"g c #475854",
"h c #4C5954",
"j c #4B5E5A",
"k c #655643",
"l c #6F5F49",
"z c #765940",
"x c #7C5D41",
"c c #596157",
"v c #58645A",
"b c #68614F",
"n c #7C6045",
"m c #73614B",
"M c #78654D",
"N c #666252",
"B c #6A6654",
"V c #746C57",
"C c #566D66",
"Z c #5A6C63",
"A c #626E62",
"S c #805F42",
"D c #826144",
"F c #8A6748",
"G c #8C6949",
"H c #EFBE3C",
"J c #E9CF88",
/* pixels */
"rrrrryyyyrryyryryyyyyyrrryyyyrrr",
"rrrrrrryyyr..........yyrrryyyyrr",
"yrrrrrryy.O=qnDDnnx%<..yrryyrrrr",
"tryrrrrr.qeHHHHHHHH7q91Xrrrrrrrr",
"ryyrrrr.eeHHHHHHHHHHSqq;.rrrrrrr",
"yyyyyrO7nHHHHHHHHHHJJSq5.rrrrryy",
"yyyyyiODFHHHHHHHHHJJJJx8.yyyyyiy",
"yyiiiiOnGHHHHHHHHJJJJJx8.yyyyyyi",
"yyyyyy.<DGHHHHHJJJJJJz9;.yiiiiii",
"yyyyy.,.<nHHHHJJJJJJe8-.o.yyyyyy",
"yyyyy.7..<JJJJJJJJJ&4=..$.iiiiiy",
"iiyyy.0,0.JJ@&&*&%$XX.$$%.yyiiyy",
"iiiii.k,D1JJ.........+-&%.iiiyyi",
"yyyyi.v3D=xqx1,n7;z86o<=p.yiyyyy",
"yyyyy.sAM=Fww=<D8$596o;su.yyiiiy",
"yyyyi.=NZcnn0%wnx=-85ahsO.iyyyyy",
"iiiii.=DfvZZb2VmMd2hgsp4oOyyyyyy",
"iiiyy.,G,0VBZCCCCjgdd<o<o.yyyyyi",
"yyyii.=D=0DSm>lzl2:864o5$.yyyyyy",
"yyyyy.*n,0Sen=SSS<-866o-o.yyyyyy",
"yyyyy.=D=0Deq=nnS<;98-o4o.iiiiiy",
"iiyyy.%D,wee0=xex<-88-o4o.iiiiii",
"iyyyy +n,nee8,xxx7;84-o4o.yyyyii",
"yyyyy #8,exe*wDexS=44-X-@.yyiiiy",
"yyyyyrrrr8xe*xDxxx--<-o>rryyyyyy",
"yyyyyyyyrrqe*xxDxS$=-orrryyyyyyy",
"iiyyyyyyyrrrrrrxxS$ttrryyyyyyyyy",
"iiiiiyyyyyyyyyrrrrrryyyyyyiiiiiy",
"yyyyiyyyyyyyiyyyyyyyyyyyyyiiiiii",
"yyyyyyyyyyyyyiyyyyyyyyyyyyyyyyii",
"yyyyiyyyiiiiiiyyyyyyyyyyyyyyiiiy",
"iiiiiyyyyyyyyyyyyyyyyyyyyyyyyyyy"
};